<svg id="Layer_1" data-name="Layer 1" xmlns="http://www.w3.org/2000/svg" viewBox="0 0 1199.63 164">
  <defs>
    <style>
      .cls-1 {
        fill: none;
      }
    </style>
  </defs>
  <title>doodle1</title>
  <path d="M816.37,44.82a48.92,48.92,0,0,0-6.17.54,16.32,16.32,0,0,0-3-.16,27.89,27.89,0,0,0-4.36.52c-1.44.27-2.87.62-4.28,1a69.35,69.35,0,0,0-8.34,2.83,51,51,0,0,0-7.65,3.9c-1.21.77-2.36,1.6-3.48,2.48s-2.23,1.88-3.29,2.88c-.52.5-1,1-1.53,1.52-1.6,1.14-3.19,2.31-4.69,3.59-.86.73-1.68,1.51-2.48,2.31s-1.55,1.62-2.29,2.48a29.27,29.27,0,0,0-2.09,2.75,23.64,23.64,0,0,0-1.7,3c-.5,1-1,2.11-1.39,3.18s-.81,2.21-1.23,3.31a.68.68,0,0,0,.83.83.65.65,0,0,0,.4-.31c.38-.86.76-1.72,1.15-2.58s.83-1.77,1.26-2.65.89-1.72,1.4-2.55A25.05,25.05,0,0,1,765,71.39c.79-1,1.66-2,2.55-2.92a40.5,40.5,0,0,0-2.34,4,29.66,29.66,0,0,0-2.82,8.12,27.41,27.41,0,0,0-.45,4.33,26.29,26.29,0,0,0,.27,4.34,32.79,32.79,0,0,0,2.39,8.4,53.2,53.2,0,0,0,4.07,7.68,51.86,51.86,0,0,0,5.19,6.9A39.65,39.65,0,0,0,787.61,122a50.25,50.25,0,0,0,17,3.94,51.43,51.43,0,0,0,8.86-.24,50.82,50.82,0,0,0,8.71-1.71,46.45,46.45,0,0,0,8-3.2,42.45,42.45,0,0,0,7.08-4.55A36,36,0,0,0,847.73,103a45.56,45.56,0,0,0,3.83-17.1,54.76,54.76,0,0,0-.39-9,47.58,47.58,0,0,0-1.94-8.68c-.45-1.39-1-2.75-1.52-4.1a39.28,39.28,0,0,0-1.89-4,29,29,0,0,0-5.26-6.66,32.93,32.93,0,0,0-3.35-2.78,29.14,29.14,0,0,0-3.66-2.24,31.55,31.55,0,0,0-8.28-2.88,38.78,38.78,0,0,0-7.83-.76l-1.07,0Zm-9,.94h.5l-.5.09a83.5,83.5,0,0,0-16.89,5.47c-2.7,1.14-5.35,2.41-7.93,3.8-1.27.68-2.53,1.4-3.76,2.16l-.94.59c.71-.63,1.44-1.25,2.19-1.83a41.64,41.64,0,0,1,5.08-3.35,55.39,55.39,0,0,1,5.43-2.63h0l.06,0h0c1.12-.47,2.24-.91,3.38-1.3s2.36-.78,3.56-1.13A49.8,49.8,0,0,1,804.66,46h0a24.56,24.56,0,0,1,2.7-.22Zm15.17,1.48a35.36,35.36,0,0,1,4.07.83,30.46,30.46,0,0,1,3.94,1.34,29.45,29.45,0,0,1,6.25,3.65,32.2,32.2,0,0,1,5.43,5.39,28.92,28.92,0,0,1,2.16,3.31,36.41,36.41,0,0,1,1.78,3.73,53.79,53.79,0,0,1,2.11,5.9,46.9,46.9,0,0,1,1.37,6.54,53.34,53.34,0,0,1,0,13.77A41.63,41.63,0,0,1,846.87,102l.06-.14a34.5,34.5,0,0,1-7.47,11.17,35.28,35.28,0,0,1-3.33,2.9l.09-.07a44.11,44.11,0,0,1-4.49,3,44.71,44.71,0,0,1-4.9,2.44l.11,0a47.23,47.23,0,0,1-5.83,2,50.79,50.79,0,0,1-6.27,1.26,53.52,53.52,0,0,1-6.82.47,52.81,52.81,0,0,1-7-.45h0a49.56,49.56,0,0,1-12.55-3.36,41.65,41.65,0,0,1-8.89-5.14h0l-.1-.08.06,0a40.88,40.88,0,0,1-3.94-3.5,43.45,43.45,0,0,1-3.43-4,57.15,57.15,0,0,1-3.76-5.61,51.39,51.39,0,0,1-3-6l0,.06a33.64,33.64,0,0,1-2.38-8.39v0a25,25,0,0,1,0-6.84v0A28.82,28.82,0,0,1,765,74.88l0,0,0-.09h0A41.11,41.11,0,0,1,770.27,66c.16-.22.33-.43.51-.65.49-.42,1-.84,1.52-1.24,1.4-1.07,2.82-2.09,4.26-3.09s3.08-2,4.68-3a89.25,89.25,0,0,1,10-5l-.24.1c3.21-1.35,6.46-2.6,9.79-3.63a65,65,0,0,1,10-2.24c1-.14,2.07-.25,3.12-.32.22.08.45.16.67.26l-.07,0a.59.59,0,0,1,.14.06.29.29,0,0,0,.39-.1.27.27,0,0,0,0-.26,42.21,42.21,0,0,1,7.37.29Zm-.25,0,.16,0-.16,0Zm-11.15.1h0Zm25.69,5.77.14.11-.14-.11Zm9.26,12.21,0,.07,0-.07ZM770.32,66l0,0,0,0Zm-5.26,5.31-.07.09.07-.09Zm-.1.13,0,0,0,0Zm36,53.19h0Zm-21.31-8.48h0l0,0,0,0ZM763.05,88.67v0Zm0-6.91v0ZM765,74.83l0,0a.14.14,0,0,1,0-.06ZM790.56,50l0,0,0,0Z" transform="translate(0 -18)"/>
  <ellipse class="cls-1" cx="130.5" cy="82" rx="130.5" ry="82"/>
  <path d="M1164.4,47.87a50.87,50.87,0,0,0-6.17.55,16.32,16.32,0,0,0-3-.17,27.89,27.89,0,0,0-4.36.52c-1.44.28-2.87.62-4.28,1a71.1,71.1,0,0,0-8.34,2.82,51,51,0,0,0-7.65,3.91,40.51,40.51,0,0,0-3.48,2.47c-1.15.9-2.23,1.88-3.29,2.89-.52.49-1,1-1.53,1.51-1.6,1.14-3.19,2.32-4.69,3.59-.86.73-1.68,1.51-2.48,2.32s-1.55,1.62-2.29,2.47a29.4,29.4,0,0,0-2.09,2.76,24.24,24.24,0,0,0-1.7,3c-.5,1-1,2.11-1.39,3.19s-.81,2.21-1.23,3.3a.7.7,0,0,0,.31.77.68.68,0,0,0,.52.06.62.62,0,0,0,.4-.31c.38-.85.76-1.72,1.15-2.57s.83-1.77,1.26-2.65a28.51,28.51,0,0,1,1.4-2.55,23.74,23.74,0,0,1,1.58-2.28,37.27,37.27,0,0,1,2.55-2.92,40.5,40.5,0,0,0-2.34,4,29.66,29.66,0,0,0-2.82,8.12,27.28,27.28,0,0,0-.45,4.32,26.15,26.15,0,0,0,.27,4.34,32.75,32.75,0,0,0,2.39,8.41,53.09,53.09,0,0,0,4.07,7.67,51.22,51.22,0,0,0,5.19,6.9,39.68,39.68,0,0,0,13.77,9.77,50.49,50.49,0,0,0,17,3.94,53.52,53.52,0,0,0,8.86-.24,51.8,51.8,0,0,0,8.71-1.71,46.45,46.45,0,0,0,8-3.2,43.76,43.76,0,0,0,7.08-4.55,36,36,0,0,0,10.4-13.26,45.56,45.56,0,0,0,3.83-17.1,54.76,54.76,0,0,0-.39-9,47.88,47.88,0,0,0-1.94-8.69c-.45-1.38-1-2.75-1.52-4.09a38.3,38.3,0,0,0-1.89-4,29.05,29.05,0,0,0-5.26-6.67,32.83,32.83,0,0,0-3.35-2.77,28.08,28.08,0,0,0-3.66-2.25,31.55,31.55,0,0,0-8.28-2.88,39.51,39.51,0,0,0-7.83-.75Zm-9,.94h.5l-.5.09a83.5,83.5,0,0,0-16.89,5.47c-2.7,1.14-5.35,2.4-7.93,3.79-1.27.68-2.53,1.4-3.76,2.16l-.94.59q1.07-.94,2.19-1.83a41.64,41.64,0,0,1,5.08-3.35,55.39,55.39,0,0,1,5.43-2.63h0l.06,0h0c1.12-.46,2.24-.9,3.38-1.3s2.36-.77,3.56-1.13a49.8,49.8,0,0,1,7.16-1.62h0c.9-.12,1.8-.2,2.7-.23Zm15.17,1.49a37.59,37.59,0,0,1,4.07.82,32.06,32.06,0,0,1,3.94,1.34,30.32,30.32,0,0,1,6.25,3.65,32.26,32.26,0,0,1,5.43,5.4,28.8,28.8,0,0,1,2.16,3.3,37.44,37.44,0,0,1,1.78,3.73,53.79,53.79,0,0,1,2.11,5.9,47.2,47.2,0,0,1,1.37,6.54,53.34,53.34,0,0,1,0,13.77,41.63,41.63,0,0,1-2.76,10.33l.06-.14a35.87,35.87,0,0,1-4.62,8,36.23,36.23,0,0,1-2.85,3.22,34,34,0,0,1-3.33,2.91l.09-.08a41.05,41.05,0,0,1-4.49,3,43,43,0,0,1-4.9,2.44l.11,0a47,47,0,0,1-12.1,3.27,53.52,53.52,0,0,1-6.82.47,52.8,52.8,0,0,1-7-.44h0a49.54,49.54,0,0,1-12.55-3.35,41.27,41.27,0,0,1-8.89-5.15h0l-.1-.08.06,0a40.88,40.88,0,0,1-3.94-3.5,43.32,43.32,0,0,1-3.43-4,57.29,57.29,0,0,1-3.76-5.62,50.6,50.6,0,0,1-3-6l0,.06a33.64,33.64,0,0,1-2.38-8.39v0a26.08,26.08,0,0,1-.23-3.42,26.36,26.36,0,0,1,.24-3.43v0a28.74,28.74,0,0,1,1.91-6.87l0,0,0-.1h0a40.63,40.63,0,0,1,5.28-8.79c.16-.22.33-.44.51-.65.49-.43,1-.84,1.52-1.25,1.4-1.07,2.82-2.09,4.26-3.09s3.08-2,4.68-3a91,91,0,0,1,10-5l-.24.1c3.21-1.35,6.46-2.6,9.79-3.63a65,65,0,0,1,10-2.24c1-.13,2.07-.24,3.12-.31l.67.25-.07,0,.14.06a.28.28,0,0,0,.39-.1.25.25,0,0,0,0-.25,42.21,42.21,0,0,1,7.37.29Zm-.25,0,.16,0-.16,0Zm-11.15.1h0Zm25.69,5.78.14.1-.14-.1Zm9.26,12.2,0,.08,0-.08Zm-75.74.68,0,0,0,0Zm-5.26,5.31-.07.1.07-.1Zm-.1.13,0,.06,0-.06Zm36,53.19h0Zm-21.31-8.48h0l0,0,0,0Zm-16.56-27.45v0Zm0-6.9v0Zm1.93-6.94,0,.06a.14.14,0,0,1,0-.06Zm25.57-24.8,0,0,0,0Z" transform="translate(0 -18)"/>
</svg>
